{
    "patcher": {
        "fileversion": 1,
        "appversion": {
            "major": 9,
            "minor": 1,
            "revision": 1,
            "architecture": "x64",
            "modernui": 1
        },
        "classnamespace": "box",
        "rect": [ 584.0, 139.0, 1000.0, 780.0 ],
        "boxes": [
            {
                "box": {
                    "id": "obj-33",
                    "maxclass": "message",
                    "numinlets": 2,
                    "numoutlets": 1,
                    "outlettype": [ "" ],
                    "patching_rect": [ 398.0, 411.0, 100.0, 22.0 ],
                    "presentation": 1,
                    "presentation_rect": [ 217.0, 42.0, 100.0, 22.0 ],
                    "text": "61 0"
                }
            },
            {
                "box": {
                    "id": "obj-31",
                    "maxclass": "newobj",
                    "numinlets": 1,
                    "numoutlets": 1,
                    "outlettype": [ "" ],
                    "patching_rect": [ 479.0, 373.0, 63.0, 22.0 ],
                    "text": "array.tolist"
                }
            },
            {
                "box": {
                    "id": "obj-24",
                    "maxclass": "newobj",
                    "numinlets": 7,
                    "numoutlets": 2,
                    "outlettype": [ "int", "" ],
                    "patching_rect": [ 398.0, 452.0, 82.0, 22.0 ],
                    "text": "midiformat"
                }
            },
            {
                "box": {
                    "id": "obj-23",
                    "maxclass": "newobj",
                    "numinlets": 1,
                    "numoutlets": 0,
                    "patching_rect": [ 398.0, 509.0, 47.0, 22.0 ],
                    "text": "midiout"
                }
            },
            {
                "box": {
                    "id": "obj-21",
                    "maxclass": "number",
                    "numinlets": 1,
                    "numoutlets": 2,
                    "outlettype": [ "", "bang" ],
                    "parameter_enable": 0,
                    "patching_rect": [ 540.0, 156.0, 50.0, 22.0 ]
                }
            },
            {
                "box": {
                    "id": "obj-19",
                    "maxclass": "newobj",
                    "numinlets": 2,
                    "numoutlets": 2,
                    "outlettype": [ "", "" ],
                    "patching_rect": [ 540.0, 102.0, 62.0, 22.0 ],
                    "text": "route /test"
                }
            },
            {
                "box": {
                    "id": "obj-16",
                    "maxclass": "newobj",
                    "numinlets": 1,
                    "numoutlets": 1,
                    "outlettype": [ "" ],
                    "patching_rect": [ 540.0, 34.0, 91.0, 22.0 ],
                    "text": "udpreceive 667"
                }
            },
            {
                "box": {
                    "filename": "testjs.js",
                    "id": "obj-3",
                    "maxclass": "newobj",
                    "numinlets": 1,
                    "numoutlets": 1,
                    "outlettype": [ "" ],
                    "patching_rect": [ 491.0, 191.0, 65.0, 22.0 ],
                    "saved_object_attributes": {
                        "parameter_enable": 0
                    },
                    "text": "v8 testjs.js",
                    "textfile": {
                        "filename": "testjs.js",
                        "flags": 0,
                        "embed": 0,
                        "autowatch": 1
                    }
                }
            }
        ],
        "lines": [
            {
                "patchline": {
                    "destination": [ "obj-19", 0 ],
                    "source": [ "obj-16", 0 ]
                }
            },
            {
                "patchline": {
                    "destination": [ "obj-21", 0 ],
                    "order": 0,
                    "source": [ "obj-19", 0 ]
                }
            },
            {
                "patchline": {
                    "destination": [ "obj-3", 0 ],
                    "order": 1,
                    "source": [ "obj-19", 0 ]
                }
            },
            {
                "patchline": {
                    "destination": [ "obj-23", 0 ],
                    "source": [ "obj-24", 0 ]
                }
            },
            {
                "patchline": {
                    "destination": [ "obj-31", 0 ],
                    "source": [ "obj-3", 0 ]
                }
            },
            {
                "patchline": {
                    "destination": [ "obj-33", 1 ],
                    "source": [ "obj-31", 0 ]
                }
            },
            {
                "patchline": {
                    "destination": [ "obj-24", 0 ],
                    "source": [ "obj-33", 0 ]
                }
            }
        ],
        "autosave": 0
    }
}